{"title":"The Search For Santa Paws 2010 DvDRip.H264.Feel-Free","uid":5936373,"size":806593953,"categoryP":"video","categoryS":"movies","magnet":"?xt=urn:btih:11232814da371501f7403ba4046104ac89128825&amp;dn=The+Search+For+Santa+Paws+2010+DvDRip.H264.Feel-Free&amp;tr=udp%3A%2F%2Ftracker.openbittorrent.com%3A80&amp;tr=udp%3A%2F%2Fopen.demonii.com%3A1337&amp;tr=udp%3A%2F%2Ftracker.coppersurfer.tk%3A6969&amp;tr=udp%3A%2F%2Fexodus.desync.com%3A6969","seeders":1,"leechers":0,"uploader":"neon","files":-1,"time":1288980101,"description":"Genre:Adventure | Family\nLanguage:English\n &lt;a href=&quot; http://www.imdb.com/title/tt1544572/&quot; rel=&quot;nofollow&quot; target=&quot;_NEW&quot;&gt; http://www.imdb.com/title/tt1544572/&lt;/a&gt;\nSource:DVDRIP RUS./Audio.RX.Thx\n\nGeneral\nComplete name :The.Search.For.Santa.Paws.2010.DvDRip.H264.Feel-Free\nFormat : MPEG-4\nFormat profile : Base Media / Version 2\nCodec ID : mp42\nFile size : 767 MiB\nDuration : 1h 32mn\nOverall bit rate : 1 158 Kbps\nVideo #1\nCodec ID : avc1\nCodec ID/Info : Advanced Video Coding\nDuration : 1h 32mn\nBit rate mode : Variable\nBit rate : 677 Kbps\nWidth : 720 pixels\nHeight : 384 pixels\nDisplay aspect ratio : 1.875\nFrame rate mode : Constant\nFrame rate : 23.976 fps\nResolution : 24 bits\nColorimetry : 4:2:0\nScan type : Progressive\nBits/(Pixel*Frame) : 0.102\nStream size : 448 MiB (58%)\nAudio #2\nID : 2\nFormat : AAC\nFormat/Info : Advanced Audio Codec\nFormat version : Version 4\nFormat profile : LC\nFormat settings, SBR : No\nCodec ID : 40\nDuration : 1h 32mn\nBit rate mode : Constant\nBit rate : 477 Kbps\nNominal bit rate : 480 Kbps\nChannel(s) : 6 channels\nChannel positions : Front: L C R, Rear: L R, LFE\nSampling rate : 48.0 KHz\nResolution : 16 bits\nStream size : 316 MiB (41%)\n\n","torrent":{"xt":"urn:btih:11232814da371501f7403ba4046104ac89128825","amp;dn":"The+Search+For+Santa+Paws+2010+DvDRip.H264.Feel-Free","amp;tr":["udp%3A%2F%2Ftracker.openbittorrent.com%3A80","udp%3A%2F%2Fopen.demonii.com%3A1337","udp%3A%2F%2Ftracker.coppersurfer.tk%3A6969","udp%3A%2F%2Fexodus.desync.com%3A6969"],"infoHash":"11232814da371501f7403ba4046104ac89128825","infoHashBuffer":{"type":"Buffer","data":[17,35,40,20,218,55,21,1,247,64,59,164,4,97,4,172,137,18,136,37]},"announce":[],"urlList":[]}}